<svg width="361" height="194" viewBox="0 0 361 194" fill="none" xmlns="http://www.w3.org/2000/svg">
<path d="M39.1911 102.107L1.00572 112.564L4.02132 118.579L18.4925 121.458L19.4572 158.959L2.40107 163.629L3.2376 166.684L26.9461 170.317L46.345 170.205L86.0852 163.427L87.7794 167.615L84.7246 168.452L80.2214 178.99L82.6612 187.899L95.0748 193.257L104.494 190.678L108.976 182.062L130.848 177.988L142.801 185.661L154.535 183.543L157.671 172.011L153.307 160.071L144.691 155.589L143.785 152.279L169.942 150.863L255.923 133.065L270.091 133.838L287.047 121.806L319.471 114.295L321.201 108.622L352.004 100.187L359.684 94.2528L360.187 88.0946L350.737 83.5671L324.113 81.2797L300.202 82.9016L297.291 44.2918L348.196 21.3215L351.172 11.2023L340.77 4.19878L305.858 0.623543L286.347 4.3244L128.218 74.4445L124.299 68.1288L104.921 66.32L105.512 78.4727L85.7922 81.4099L83.9798 74.7911L80.3884 71.6697L52.0372 78.0649L48.9158 81.6563L43.5699 83.1202L24.2768 73.6258L13.5849 76.5536L15.7459 84.4453L33.9267 92.876L39.1911 102.107Z" fill="black" stroke="black" stroke-width="0.527883"/>
</svg>
